<?xml version="1.0" standalone="no"?>
<!DOCTYPE svg PUBLIC "-//W3C//DTD SVG 20010904//EN"
 "http://www.w3.org/TR/2001/REC-SVG-20010904/DTD/svg10.dtd">
<svg version="1.0" xmlns="http://www.w3.org/2000/svg"
 width="500.000000pt" height="500.000000pt" viewBox="0 0 500.000000 500.000000"
 preserveAspectRatio="xMidYMid meet">
<metadata>
Created by potrace 1.14, written by Peter Selinger 2001-2017
</metadata>
<g transform="translate(0.000000,500.000000) scale(0.100000,-0.100000)"
fill="#000000" stroke="none">
<path d="M4007 4518 c-156 -33 -280 -174 -290 -329 -10 -153 74 -296 213 -363
58 -28 74 -31 155 -31 78 1 98 5 150 30 76 36 149 109 183 183 23 49 27 70 27
152 0 85 -3 101 -30 155 -47 95 -138 173 -233 200 -37 11 -133 12 -175 3z"/>
<path d="M2609 4106 c-2 -2 -51 -6 -109 -10 -164 -9 -273 -31 -457 -90 -105
-34 -380 -162 -370 -172 3 -3 22 3 44 14 63 32 213 80 319 101 376 76 718 30
1069 -144 356 -177 649 -503 790 -880 28 -73 62 -196 71 -250 3 -22 7 -42 9
-46 16 -26 25 -330 12 -444 -6 -60 -8 -74 -28 -175 -16 -83 -76 -253 -126
-360 -45 -97 -46 -102 -28 -200 11 -66 45 -270 50 -305 3 -22 8 -53 11 -68 5
-25 3 -28 -12 -24 -11 3 -39 8 -64 12 -25 4 -61 11 -80 16 -19 4 -87 18 -151
30 l-117 21 -63 -49 c-309 -240 -662 -357 -1054 -348 -247 5 -441 51 -669 161
-218 104 -444 288 -582 477 -72 97 -72 93 0 -23 188 -304 458 -549 761 -690
155 -72 361 -139 480 -155 17 -3 59 -8 95 -13 36 -5 133 -10 215 -10 133 0
179 3 315 23 108 16 290 73 408 126 35 16 65 29 66 29 2 0 45 23 96 50 97 53
89 52 195 35 58 -9 91 -15 180 -31 50 -8 104 -17 120 -20 17 -2 41 -6 55 -9
55 -11 77 -14 115 -20 22 -3 52 -8 68 -10 15 -3 27 -4 27 -2 0 3 -4 26 -9 53
-5 27 -12 69 -16 94 -4 25 -11 68 -16 95 -5 28 -12 66 -15 85 -3 19 -12 71
-19 115 -40 225 -40 225 -7 281 70 120 175 377 196 484 3 14 7 36 10 50 51
233 53 528 6 740 -6 25 -12 54 -15 65 -35 169 -131 391 -242 560 -319 485
-836 787 -1403 821 -63 3 -118 8 -121 10 -3 2 -8 2 -10 0z"/>
<path d="M773 4005 c-98 -29 -163 -86 -205 -181 -28 -64 -23 -188 10 -256 91
-185 339 -227 490 -84 144 138 124 369 -43 483 -65 44 -175 61 -252 38z"/>
<path d="M2359 3866 c-2 -2 -51 -6 -107 -10 -57 -3 -107 -8 -110 -10 -4 -2
-25 -7 -47 -10 -125 -20 -252 -65 -418 -147 -213 -106 -420 -293 -552 -498
-83 -129 -185 -358 -201 -451 -2 -14 -7 -36 -10 -50 -25 -108 -33 -198 -29
-355 2 -88 6 -176 10 -195 22 -119 86 -332 106 -354 5 -6 9 -15 9 -22 0 -23
105 -202 170 -289 62 -83 171 -197 245 -258 61 -50 201 -140 268 -173 168 -82
313 -116 492 -117 155 -1 218 6 333 39 381 109 663 403 764 794 25 95 30 136
31 240 1 122 -2 153 -22 255 -25 124 -106 309 -183 412 -130 178 -296 305
-498 384 -104 40 -109 36 -15 -14 203 -106 365 -275 458 -478 62 -133 82 -225
82 -379 0 -115 -7 -157 -40 -255 -102 -305 -330 -543 -606 -634 -127 -42 -328
-47 -464 -12 -98 25 -238 93 -325 158 -234 174 -411 502 -448 827 -13 111 -6
326 12 416 131 643 687 1094 1334 1082 178 -3 343 -36 485 -97 42 -18 77 -32
77 -30 0 8 -157 87 -237 119 -158 63 -330 101 -476 105 -39 1 -74 4 -78 6 -3
3 -8 3 -10 1z"/>
<path d="M2395 2227 c-109 -43 -166 -128 -160 -239 12 -191 233 -284 391 -163
62 48 98 166 74 242 -44 133 -184 207 -305 160z"/>
</g>
</svg>
