<svg xmlns="http://www.w3.org/2000/svg" xmlns:xlink="http://www.w3.org/1999/xlink" zoomAndPan="magnify" preserveAspectRatio="xMidYMid meet" version="1.0" viewBox="40.81 35.46 293.26 304.07"><defs><clipPath id="c2350aa719"><path d="M 40.8125 73 L 249 73 L 249 307 L 40.8125 307 Z M 40.8125 73 " clip-rule="nonzero"/></clipPath><clipPath id="56e8196df5"><path d="M 75 35.457031 L 334.058594 35.457031 L 334.058594 339.207031 L 75 339.207031 Z M 75 35.457031 " clip-rule="nonzero"/></clipPath></defs><g clip-path="url(#c2350aa719)"><path fill="#004aad" d="M 233.820312 100.363281 C 235.535156 101.347656 237.207031 102.378906 238.859375 103.449219 C 191.605469 79.496094 133.3125 96.417969 106.496094 142.855469 C 89.285156 172.664062 89.273438 207.539062 102.886719 236.496094 C 131.714844 297.855469 208.816406 296.128906 231.890625 232.15625 C 245.332031 194.902344 220.542969 154.613281 183.351562 142.449219 C 184.765625 142.75 186.183594 143.09375 187.585938 143.46875 C 231.675781 155.277344 257.851562 200.605469 246.027344 244.695312 C 231.429688 299.160156 170.179688 322.066406 121.898438 294.199219 C 68.375 263.289062 50.035156 194.847656 80.933594 141.324219 C 111.835938 87.800781 180.285156 69.453125 233.808594 100.363281 Z M 180.746094 207.699219 C 190.253906 205.148438 200.027344 210.796875 202.578125 220.300781 C 205.128906 229.808594 199.480469 239.582031 189.976562 242.132812 C 180.46875 244.683594 170.695312 239.035156 168.144531 229.53125 C 165.59375 220.023438 171.242188 210.25 180.746094 207.699219 Z M 58.203125 74.554688 C 70.636719 71.222656 83.410156 78.59375 86.746094 91.039062 C 90.078125 103.46875 82.703125 116.257812 70.261719 119.589844 C 57.828125 122.921875 45.054688 115.539062 41.71875 103.105469 C 38.386719 90.671875 45.761719 77.886719 58.203125 74.566406 Z M 58.203125 74.554688 " fill-opacity="1" fill-rule="evenodd"/></g><g clip-path="url(#56e8196df5)"><path fill="#0cc0df" d="M 128.703125 85.527344 C 126.613281 86.730469 124.578125 87.984375 122.582031 89.28125 C 180.0625 60.140625 250.949219 80.738281 283.5625 137.210938 C 305.960938 175.996094 304.652344 221.964844 284.160156 258.359375 L 290.386719 296.601562 L 258.085938 290.375 C 252.234375 295.476562 245.804688 300.09375 238.828125 304.125 C 182.34375 336.738281 110.65625 319.117188 75.449219 265.144531 C 76.53125 267.265625 77.667969 269.367188 78.878906 271.457031 C 116.464844 336.554688 199.707031 358.859375 264.804688 321.273438 C 266.574219 320.253906 268.308594 319.183594 270.023438 318.101562 L 320.386719 326.609375 L 311.878906 276.042969 C 337.921875 234.675781 340.761719 180.625 314.621094 135.355469 C 277.035156 70.257812 193.792969 47.953125 128.691406 85.539062 Z M 299.273438 36.410156 C 314.011719 32.457031 329.164062 41.203125 333.121094 55.949219 C 337.074219 70.683594 328.316406 85.839844 313.582031 89.792969 C 298.84375 93.738281 283.691406 84.992188 279.734375 70.257812 C 275.78125 55.507812 284.535156 40.367188 299.273438 36.410156 Z M 299.273438 36.410156 " fill-opacity="1" fill-rule="evenodd"/></g></svg>