<svg xmlns="http://www.w3.org/2000/svg" xmlns:xlink="http://www.w3.org/1999/xlink" zoomAndPan="magnify" preserveAspectRatio="xMidYMid meet" version="1.0" viewBox="55.7 160.89 256.26 53.51"><defs><g/><clipPath id="4729e536f8"><path d="M 55.703125 167 L 93 167 L 93 209 L 55.703125 209 Z M 55.703125 167 " clip-rule="nonzero"/></clipPath><clipPath id="c8a781f9b6"><path d="M 61 160.890625 L 107.394531 160.890625 L 107.394531 214.25 L 61 214.25 Z M 61 160.890625 " clip-rule="nonzero"/></clipPath></defs><g clip-path="url(#4729e536f8)"><path fill="#004aad" d="M 89.664062 172.3125 C 89.964844 172.484375 90.257812 172.667969 90.550781 172.855469 C 82.234375 168.640625 71.976562 171.617188 67.261719 179.789062 C 64.230469 185.035156 64.230469 191.171875 66.625 196.265625 C 71.695312 207.0625 85.265625 206.757812 89.324219 195.5 C 91.6875 188.945312 87.328125 181.859375 80.785156 179.71875 C 81.03125 179.769531 81.28125 179.832031 81.527344 179.894531 C 89.285156 181.976562 93.890625 189.949219 91.8125 197.707031 C 89.242188 207.292969 78.464844 211.320312 69.96875 206.417969 C 60.550781 200.980469 57.324219 188.9375 62.761719 179.519531 C 68.199219 170.101562 80.242188 166.871094 89.660156 172.3125 Z M 80.324219 191.199219 C 81.996094 190.75 83.71875 191.742188 84.167969 193.417969 C 84.617188 195.089844 83.621094 196.808594 81.949219 197.257812 C 80.277344 197.707031 78.554688 196.710938 78.105469 195.039062 C 77.660156 193.367188 78.652344 191.648438 80.324219 191.199219 Z M 58.761719 167.769531 C 60.949219 167.183594 63.199219 168.480469 63.785156 170.671875 C 64.371094 172.859375 63.074219 175.109375 60.882812 175.695312 C 58.695312 176.28125 56.449219 174.980469 55.863281 172.792969 C 55.273438 170.605469 56.574219 168.355469 58.761719 167.773438 Z M 58.761719 167.769531 " fill-opacity="1" fill-rule="evenodd"/></g><g clip-path="url(#c8a781f9b6)"><path fill="#0cc0df" d="M 71.167969 169.703125 C 70.800781 169.914062 70.441406 170.132812 70.089844 170.363281 C 80.203125 165.234375 92.675781 168.859375 98.414062 178.796875 C 102.355469 185.621094 102.128906 193.707031 98.523438 200.113281 L 99.617188 206.839844 L 93.933594 205.746094 C 92.902344 206.644531 91.773438 207.457031 90.542969 208.164062 C 80.605469 213.902344 67.992188 210.804688 61.796875 201.304688 C 61.988281 201.679688 62.1875 202.050781 62.398438 202.417969 C 69.015625 213.871094 83.660156 217.796875 95.117188 211.183594 C 95.425781 211.003906 95.730469 210.816406 96.035156 210.625 L 104.894531 212.121094 L 103.398438 203.222656 C 107.980469 195.945312 108.480469 186.433594 103.882812 178.46875 C 97.265625 167.015625 82.621094 163.089844 71.164062 169.703125 Z M 101.179688 161.058594 C 103.773438 160.363281 106.441406 161.902344 107.136719 164.496094 C 107.832031 167.089844 106.292969 169.757812 103.699219 170.453125 C 101.105469 171.144531 98.4375 169.605469 97.742188 167.015625 C 97.046875 164.417969 98.585938 161.753906 101.179688 161.058594 Z M 101.179688 161.058594 " fill-opacity="1" fill-rule="evenodd"/></g><g fill="#ed5b2d" fill-opacity="1"><g transform="translate(114.619275, 198.11389)"><g><path d="M 1.34375 -17.328125 L 9.3125 -17.328125 C 11.957031 -17.328125 13.28125 -16.210938 13.28125 -13.984375 L 13.28125 -3.34375 C 13.28125 -1.113281 11.957031 0 9.3125 0 L 1.34375 0 Z M 8.5625 -3.703125 L 8.5625 -13.640625 C 8.5625 -14.035156 8.335938 -14.234375 7.890625 -14.234375 L 6.078125 -14.234375 L 6.078125 -3.109375 L 7.890625 -3.109375 C 8.335938 -3.109375 8.5625 -3.304688 8.5625 -3.703125 Z M 8.5625 -3.703125 "/></g></g></g><g fill="#ed5b2d" fill-opacity="1"><g transform="translate(131.062875, 198.11389)"><g><path d="M 1 -14.828125 L 1 -18.0625 L 5.75 -18.0625 L 5.75 -14.828125 Z M 5.671875 0 L 1.078125 0 L 1.078125 -13.46875 L 5.671875 -13.46875 Z M 5.671875 0 "/></g></g></g><g fill="#ed5b2d" fill-opacity="1"><g transform="translate(139.973444, 198.11389)"><g><path d="M 6.890625 -3.5625 L 6.890625 -4.640625 C 6.890625 -5.035156 6.660156 -5.234375 6.203125 -5.234375 L 4.5625 -5.234375 C 1.96875 -5.234375 0.671875 -6.34375 0.671875 -8.5625 L 0.671875 -10.125 C 0.671875 -12.351562 1.992188 -13.46875 4.640625 -13.46875 L 7.15625 -13.46875 C 9.800781 -13.46875 11.125 -12.351562 11.125 -10.125 L 11.125 -8.984375 L 6.75 -8.984375 L 6.75 -9.90625 C 6.75 -10.300781 6.523438 -10.5 6.078125 -10.5 L 5.8125 -10.5 C 5.351562 -10.5 5.125 -10.300781 5.125 -9.90625 L 5.125 -8.71875 C 5.125 -8.320312 5.351562 -8.125 5.8125 -8.125 L 7.453125 -8.125 C 8.835938 -8.125 9.832031 -7.835938 10.4375 -7.265625 C 11.039062 -6.703125 11.34375 -5.890625 11.34375 -4.828125 L 11.34375 -3.34375 C 11.34375 -1.113281 10.019531 0 7.375 0 L 4.71875 0 C 2.070312 0 0.75 -1.113281 0.75 -3.34375 L 0.75 -4.453125 L 5.21875 -4.453125 L 5.21875 -3.5625 C 5.21875 -3.164062 5.441406 -2.96875 5.890625 -2.96875 L 6.203125 -2.96875 C 6.660156 -2.96875 6.890625 -3.164062 6.890625 -3.5625 Z M 6.890625 -3.5625 "/></g></g></g><g fill="#ed5b2d" fill-opacity="1"><g transform="translate(154.149037, 198.11389)"><g><path d="M 11.640625 -8.265625 L 7.203125 -8.265625 L 7.203125 -9.5 C 7.203125 -9.894531 6.976562 -10.09375 6.53125 -10.09375 L 6.078125 -10.09375 C 5.628906 -10.09375 5.40625 -9.894531 5.40625 -9.5 L 5.40625 -3.96875 C 5.40625 -3.570312 5.628906 -3.375 6.078125 -3.375 L 6.53125 -3.375 C 6.976562 -3.375 7.203125 -3.570312 7.203125 -3.96875 L 7.203125 -5.21875 L 11.640625 -5.21875 L 11.640625 -3.34375 C 11.640625 -1.113281 10.316406 0 7.671875 0 L 4.78125 0 C 2.132812 0 0.8125 -1.113281 0.8125 -3.34375 L 0.8125 -10.125 C 0.8125 -12.351562 2.132812 -13.46875 4.78125 -13.46875 L 7.671875 -13.46875 C 10.316406 -13.46875 11.640625 -12.351562 11.640625 -10.125 Z M 11.640625 -8.265625 "/></g></g></g><g fill="#ed5b2d" fill-opacity="1"><g transform="translate(168.486632, 198.11389)"><g><path d="M 7.390625 -13.46875 L 11.984375 -13.46875 L 11.984375 0 L 7.484375 0 L 7.484375 -1.734375 C 7.222656 -0.578125 6.398438 0 5.015625 0 L 4.53125 0 C 2.132812 0 0.9375 -1.113281 0.9375 -3.34375 L 0.9375 -13.46875 L 5.53125 -13.46875 L 5.53125 -3.96875 C 5.53125 -3.570312 5.753906 -3.375 6.203125 -3.375 L 6.671875 -3.375 C 7.148438 -3.375 7.390625 -3.644531 7.390625 -4.1875 Z M 7.390625 -13.46875 "/></g></g></g><g fill="#ed5b2d" fill-opacity="1"><g transform="translate(183.715231, 198.11389)"><g><path d="M 6.890625 -3.5625 L 6.890625 -4.640625 C 6.890625 -5.035156 6.660156 -5.234375 6.203125 -5.234375 L 4.5625 -5.234375 C 1.96875 -5.234375 0.671875 -6.34375 0.671875 -8.5625 L 0.671875 -10.125 C 0.671875 -12.351562 1.992188 -13.46875 4.640625 -13.46875 L 7.15625 -13.46875 C 9.800781 -13.46875 11.125 -12.351562 11.125 -10.125 L 11.125 -8.984375 L 6.75 -8.984375 L 6.75 -9.90625 C 6.75 -10.300781 6.523438 -10.5 6.078125 -10.5 L 5.8125 -10.5 C 5.351562 -10.5 5.125 -10.300781 5.125 -9.90625 L 5.125 -8.71875 C 5.125 -8.320312 5.351562 -8.125 5.8125 -8.125 L 7.453125 -8.125 C 8.835938 -8.125 9.832031 -7.835938 10.4375 -7.265625 C 11.039062 -6.703125 11.34375 -5.890625 11.34375 -4.828125 L 11.34375 -3.34375 C 11.34375 -1.113281 10.019531 0 7.375 0 L 4.71875 0 C 2.070312 0 0.75 -1.113281 0.75 -3.34375 L 0.75 -4.453125 L 5.21875 -4.453125 L 5.21875 -3.5625 C 5.21875 -3.164062 5.441406 -2.96875 5.890625 -2.96875 L 6.203125 -2.96875 C 6.660156 -2.96875 6.890625 -3.164062 6.890625 -3.5625 Z M 6.890625 -3.5625 "/></g></g></g><g fill="#ed5b2d" fill-opacity="1"><g transform="translate(197.890823, 198.11389)"><g><path d="M 6.890625 -3.5625 L 6.890625 -4.640625 C 6.890625 -5.035156 6.660156 -5.234375 6.203125 -5.234375 L 4.5625 -5.234375 C 1.96875 -5.234375 0.671875 -6.34375 0.671875 -8.5625 L 0.671875 -10.125 C 0.671875 -12.351562 1.992188 -13.46875 4.640625 -13.46875 L 7.15625 -13.46875 C 9.800781 -13.46875 11.125 -12.351562 11.125 -10.125 L 11.125 -8.984375 L 6.75 -8.984375 L 6.75 -9.90625 C 6.75 -10.300781 6.523438 -10.5 6.078125 -10.5 L 5.8125 -10.5 C 5.351562 -10.5 5.125 -10.300781 5.125 -9.90625 L 5.125 -8.71875 C 5.125 -8.320312 5.351562 -8.125 5.8125 -8.125 L 7.453125 -8.125 C 8.835938 -8.125 9.832031 -7.835938 10.4375 -7.265625 C 11.039062 -6.703125 11.34375 -5.890625 11.34375 -4.828125 L 11.34375 -3.34375 C 11.34375 -1.113281 10.019531 0 7.375 0 L 4.71875 0 C 2.070312 0 0.75 -1.113281 0.75 -3.34375 L 0.75 -4.453125 L 5.21875 -4.453125 L 5.21875 -3.5625 C 5.21875 -3.164062 5.441406 -2.96875 5.890625 -2.96875 L 6.203125 -2.96875 C 6.660156 -2.96875 6.890625 -3.164062 6.890625 -3.5625 Z M 6.890625 -3.5625 "/></g></g></g><g fill="#ed5b2d" fill-opacity="1"><g transform="translate(212.066415, 198.11389)"><g><path d="M 1 -14.828125 L 1 -18.0625 L 5.75 -18.0625 L 5.75 -14.828125 Z M 5.671875 0 L 1.078125 0 L 1.078125 -13.46875 L 5.671875 -13.46875 Z M 5.671875 0 "/></g></g></g><g fill="#ed5b2d" fill-opacity="1"><g transform="translate(220.976984, 198.11389)"><g><path d="M 4.78125 -13.46875 L 8.203125 -13.46875 C 9.578125 -13.46875 10.5625 -13.179688 11.15625 -12.609375 C 11.75 -12.035156 12.046875 -11.207031 12.046875 -10.125 L 12.046875 -3.34375 C 12.046875 -2.269531 11.75 -1.441406 11.15625 -0.859375 C 10.5625 -0.285156 9.578125 0 8.203125 0 L 4.78125 0 C 3.414062 0 2.429688 -0.285156 1.828125 -0.859375 C 1.234375 -1.441406 0.9375 -2.269531 0.9375 -3.34375 L 0.9375 -10.125 C 0.9375 -11.207031 1.234375 -12.035156 1.828125 -12.609375 C 2.429688 -13.179688 3.414062 -13.46875 4.78125 -13.46875 Z M 7.53125 -3.78125 L 7.53125 -9.6875 C 7.53125 -10.082031 7.304688 -10.28125 6.859375 -10.28125 L 6.125 -10.28125 C 5.675781 -10.28125 5.453125 -10.082031 5.453125 -9.6875 L 5.453125 -3.78125 C 5.453125 -3.382812 5.675781 -3.1875 6.125 -3.1875 L 6.859375 -3.1875 C 7.304688 -3.1875 7.53125 -3.382812 7.53125 -3.78125 Z M 7.53125 -3.78125 "/></g></g></g><g fill="#ed5b2d" fill-opacity="1"><g transform="translate(236.124581, 198.11389)"><g><path d="M 8.046875 -13.46875 L 8.53125 -13.46875 C 10.925781 -13.46875 12.125 -12.351562 12.125 -10.125 L 12.125 0 L 7.53125 0 L 7.53125 -9.5 C 7.53125 -9.894531 7.304688 -10.09375 6.859375 -10.09375 L 6.40625 -10.09375 C 5.914062 -10.09375 5.671875 -9.820312 5.671875 -9.28125 L 5.671875 0 L 1.078125 0 L 1.078125 -13.46875 L 5.59375 -13.46875 L 5.59375 -11.75 C 5.84375 -12.894531 6.660156 -13.46875 8.046875 -13.46875 Z M 8.046875 -13.46875 "/></g></g></g><g fill="#ed5b2d" fill-opacity="1"><g transform="translate(251.35318, 198.11389)"><g><path d="M 11.46875 -13.953125 L 5.8125 -13.953125 L 5.8125 -9.75 L 10.71875 -9.75 L 10.71875 -6.640625 L 5.8125 -6.640625 L 5.8125 0 L 1.078125 0 L 1.078125 -17.328125 L 11.46875 -17.328125 Z M 11.46875 -13.953125 "/></g></g></g><g fill="#ed5b2d" fill-opacity="1"><g transform="translate(265.393763, 198.11389)"><g><path d="M 5.671875 0 L 1.078125 0 L 1.078125 -18.0625 L 5.671875 -18.0625 Z M 5.671875 0 "/></g></g></g><g fill="#ed5b2d" fill-opacity="1"><g transform="translate(274.304332, 198.11389)"><g><path d="M 4.78125 -13.46875 L 8.078125 -13.46875 C 10.722656 -13.46875 12.046875 -12.351562 12.046875 -10.125 L 12.046875 -5.53125 L 5.15625 -5.53125 L 5.15625 -3.75 C 5.15625 -3.351562 5.378906 -3.15625 5.828125 -3.15625 L 7.015625 -3.15625 C 7.460938 -3.15625 7.6875 -3.375 7.6875 -3.8125 L 7.6875 -4.5625 L 12.046875 -4.5625 L 12.046875 -3.34375 C 12.046875 -1.113281 10.722656 0 8.078125 0 L 4.78125 0 C 2.132812 0 0.8125 -1.113281 0.8125 -3.34375 L 0.8125 -10.125 C 0.8125 -12.351562 2.132812 -13.46875 4.78125 -13.46875 Z M 5.15625 -8.015625 L 7.6875 -8.015625 L 7.6875 -9.71875 C 7.6875 -10.113281 7.460938 -10.3125 7.015625 -10.3125 L 5.828125 -10.3125 C 5.378906 -10.3125 5.15625 -10.113281 5.15625 -9.71875 Z M 5.15625 -8.015625 "/></g></g></g><g fill="#ed5b2d" fill-opacity="1"><g transform="translate(289.181929, 198.11389)"><g><path d="M 4.78125 -13.46875 L 8.078125 -13.46875 C 10.722656 -13.46875 12.046875 -12.351562 12.046875 -10.125 L 12.046875 -5.53125 L 5.15625 -5.53125 L 5.15625 -3.75 C 5.15625 -3.351562 5.378906 -3.15625 5.828125 -3.15625 L 7.015625 -3.15625 C 7.460938 -3.15625 7.6875 -3.375 7.6875 -3.8125 L 7.6875 -4.5625 L 12.046875 -4.5625 L 12.046875 -3.34375 C 12.046875 -1.113281 10.722656 0 8.078125 0 L 4.78125 0 C 2.132812 0 0.8125 -1.113281 0.8125 -3.34375 L 0.8125 -10.125 C 0.8125 -12.351562 2.132812 -13.46875 4.78125 -13.46875 Z M 5.15625 -8.015625 L 7.6875 -8.015625 L 7.6875 -9.71875 C 7.6875 -10.113281 7.460938 -10.3125 7.015625 -10.3125 L 5.828125 -10.3125 C 5.378906 -10.3125 5.15625 -10.113281 5.15625 -9.71875 Z M 5.15625 -8.015625 "/></g></g></g><g fill="#ed5b2d" fill-opacity="1"><g transform="translate(304.059525, 198.11389)"><g><path d="M 7.90625 -10.09375 L 6.203125 -10.09375 L 6.203125 -3.96875 C 6.203125 -3.570312 6.429688 -3.375 6.890625 -3.375 L 7.890625 -3.375 L 7.890625 0 L 5.59375 0 C 2.945312 0 1.625 -1.113281 1.625 -3.34375 L 1.625 -10.09375 L 0.140625 -10.09375 L 0.140625 -13.46875 L 1.625 -13.46875 L 1.625 -16.125 L 6.203125 -16.125 L 6.203125 -13.46875 L 7.90625 -13.46875 Z M 7.90625 -10.09375 "/></g></g></g></svg>